<svg width="27" height="22" viewBox="0 0 27 22" fill="none" xmlns="http://www.w3.org/2000/svg">
<path d="M4.3781 16.3667L4.68498 17.5942C5.07369 19.19 5.92272 20.0084 7.61054 20.0084H18.6274C20.3255 20.0084 21.1643 19.2105 21.5632 17.5942L21.8701 16.3667H4.3781ZM4.04054 14.9653H22.2178L24.1409 7.08884L23.3021 6.60807L18.5865 10.0451C18.2387 10.2906 18.0034 10.1985 17.809 9.92235L13.3696 3.21198L12.8786 3.19152L8.39818 9.95299C8.22429 10.219 8.01971 10.3008 7.67191 10.0553L3.04831 6.67968L2.0663 6.93541L4.04054 14.9653ZM2.44478 9.13465C3.79504 9.13465 4.87933 8.04017 4.87933 6.67968C4.87933 5.34988 3.79504 4.24512 2.44478 4.24512C1.09453 4.24512 0 5.33965 0 6.67968C0 8.04017 1.10475 9.13465 2.44478 9.13465ZM13.1241 4.87933C14.4641 4.87933 15.5586 3.78481 15.5586 2.43455C15.5586 1.10475 14.4641 0 13.1241 0C11.7636 0 10.6793 1.09453 10.6793 2.43455C10.6793 3.78481 11.7738 4.87933 13.1241 4.87933ZM23.7931 9.13465C25.1332 9.13465 26.2379 8.04017 26.2379 6.67968C26.2379 5.33965 25.1434 4.24512 23.7931 4.24512C22.4532 4.24512 21.3586 5.34988 21.3586 6.67968C21.3586 8.04017 22.4532 9.13465 23.7931 9.13465Z" fill="#9EFF00"/>
</svg>
