<svg width="26" height="20" viewBox="0 0 26 20" fill="none" xmlns="http://www.w3.org/2000/svg">
<path d="M9.21375 11.7973C9.21375 11.6915 9.26785 11.5963 9.35431 11.4905L13.8207 5.99917C14.1558 5.57595 14.7182 5.86163 14.5236 6.38008L13.0528 10.242H15.8104C16.0159 10.242 16.1998 10.4007 16.1998 10.5912C16.1998 10.697 16.1457 10.8134 16.0483 10.9085L11.5929 16.3892C11.2576 16.8125 10.6845 16.5268 10.8792 16.019L12.3607 12.1465H9.59221C9.3868 12.1465 9.21375 11.9984 9.21375 11.7973ZM3.39568 19.4788H22.1043C24.3754 19.4788 25.5 18.389 25.5 16.2094V5.97801C25.5 3.79842 24.3754 2.70862 22.1043 2.70862H20.6119V1.29083C20.6119 0.486705 20.1361 0 19.3035 0H16.1132C15.2913 0 14.8155 0.486705 14.8155 1.29083V2.70862H10.6953V1.29083C10.6953 0.486705 10.2195 0 9.3868 0H6.19656C5.36387 0 4.89885 0.486705 4.89885 1.29083V2.70862H3.39568C1.1355 2.70862 0 3.79842 0 5.97801V16.2094C0 18.389 1.1355 19.4788 3.39568 19.4788Z" fill="#9EFF00"/>
</svg>
