<svg width="26" height="26" viewBox="0 0 26 26" fill="none" xmlns="http://www.w3.org/2000/svg">
<path d="M12.1875 4.79617C12.1875 4.35223 11.9549 3.95095 11.686 3.59775C11.4099 3.23513 11.25 2.805 11.25 2.34375C11.25 1.04933 12.5092 0 14.0625 0C15.6158 0 16.875 1.04933 16.875 2.34375C16.875 2.805 16.7151 3.23513 16.439 3.59775C16.1701 3.95095 15.9375 4.35223 15.9375 4.79617C15.9375 5.21161 16.2846 5.54325 16.6993 5.5185C19.0876 5.37599 21.4373 5.0916 23.7402 4.67373C23.9937 4.62774 24.2549 4.68806 24.4625 4.84051C24.6701 4.99296 24.8058 5.22413 24.8378 5.47971C25.1179 7.71655 25.2766 9.99078 25.3073 12.2956C25.3134 12.7535 24.9417 13.1249 24.4837 13.125C24.0397 13.125 23.6385 12.8924 23.2852 12.6235C22.9226 12.3474 22.4925 12.1875 22.0312 12.1875C20.7368 12.1875 19.6875 13.4467 19.6875 15C19.6875 16.5533 20.7368 17.8125 22.0312 17.8125C22.4925 17.8125 22.9226 17.6526 23.2852 17.3765C23.6385 17.1076 24.0397 16.875 24.4837 16.875C24.8717 16.875 25.1798 17.2021 25.1518 17.5891C25.0035 19.6373 24.7539 21.6577 24.4079 23.6452C24.3401 24.0349 24.0348 24.3402 23.6451 24.408C21.3712 24.8037 19.0543 25.0734 16.7019 25.2096C16.2856 25.2337 15.9375 24.9006 15.9375 24.4837C15.9375 24.0397 16.1701 23.6385 16.439 23.2852C16.7151 22.9226 16.875 22.4925 16.875 22.0312C16.875 20.7368 15.6158 19.6875 14.0625 19.6875C12.5092 19.6875 11.25 20.7368 11.25 22.0312C11.25 22.4925 11.4099 22.9226 11.686 23.2852C11.9549 23.6385 12.1875 24.0397 12.1875 24.4837C12.1875 24.9356 11.8174 25.3007 11.3657 25.2878C9.37878 25.2315 7.41548 25.08 5.48016 24.8377C5.22458 24.8057 4.99342 24.6699 4.84096 24.4623C4.68851 24.2547 4.6282 23.9935 4.67419 23.7401C5.04028 21.7226 5.30393 19.6692 5.4595 17.5854C5.48822 17.2006 5.18203 16.875 4.79617 16.875C4.35223 16.875 3.95095 17.1076 3.59775 17.3765C3.23513 17.6526 2.805 17.8125 2.34375 17.8125C1.04933 17.8125 0 16.5533 0 15C0 13.4467 1.04933 12.1875 2.34375 12.1875C2.805 12.1875 3.23513 12.3474 3.59775 12.6235C3.95095 12.8924 4.35223 13.125 4.79617 13.125C5.25413 13.125 5.62597 12.7537 5.61967 12.2958C5.59167 10.2606 5.46077 8.25033 5.23199 6.27035C5.19913 5.98601 5.29798 5.70223 5.50038 5.49983C5.70278 5.29743 5.98656 5.19858 6.2709 5.23144C7.94878 5.42532 9.64825 5.5489 11.3663 5.59914C11.8177 5.61234 12.1875 5.24771 12.1875 4.79617Z" fill="#9EFF00"/>
</svg>
