<svg width="29" height="20" viewBox="0 0 29 20" fill="none" xmlns="http://www.w3.org/2000/svg">
<path d="M10.6584 17.3952H21.3252C22.6575 17.3952 23.1327 17.0194 23.1327 16.2845C23.1327 14.13 20.3918 11.1571 15.9875 11.1571C11.5918 11.1571 8.85088 14.13 8.85088 16.2845C8.85088 17.0194 9.32606 17.3952 10.6584 17.3952ZM15.996 9.66228C17.8205 9.66228 19.3904 8.05892 19.3904 5.97123C19.3904 3.90857 17.8121 2.38037 15.996 2.38037C14.18 2.38037 12.6016 3.94198 12.6016 5.98793C12.6016 8.05892 14.1715 9.66228 15.996 9.66228ZM1.49353 17.3952H7.94289C7.06032 16.1342 8.13805 13.5956 9.9625 12.2093C9.02055 11.5914 7.80704 11.132 6.2202 11.132C2.39304 11.132 0 13.9129 0 16.2261C0 16.9777 0.424298 17.3952 1.49353 17.3952ZM6.22869 9.8544C7.80704 9.8544 9.18181 8.45142 9.18181 6.6393C9.18181 4.84387 7.79857 3.51608 6.22869 3.51608C4.65031 3.51608 3.25861 4.87727 3.26709 6.656C3.26709 8.45142 4.64182 9.8544 6.22869 9.8544ZM22.2756 9.4118C22.5642 9.60384 22.963 9.54541 23.1921 9.21968C23.8455 8.37624 24.2359 7.13203 24.2359 5.85432C24.2359 4.57664 23.8455 3.34072 23.1921 2.48894C22.963 2.16325 22.5642 2.10479 22.2756 2.29686C21.9362 2.53069 21.8768 2.94823 22.1483 3.29062C22.6405 3.95868 22.9205 4.88562 22.9205 5.85432C22.9205 6.82302 22.632 7.74159 22.1483 8.418C21.8853 8.76874 21.9362 9.16958 22.2756 9.4118ZM25.4239 11.5914C25.7379 11.8001 26.1282 11.725 26.3574 11.4077C27.4436 9.93791 28.08 7.91697 28.08 5.85432C28.08 3.79166 27.4521 1.75406 26.3574 0.301014C26.1282 -0.0163183 25.7379 -0.0914762 25.4239 0.117295C25.11 0.326066 25.0591 0.718555 25.3051 1.06094C26.2301 2.34697 26.7647 4.07559 26.7647 5.85432C26.7647 7.63307 26.2131 9.35329 25.3051 10.6477C25.0675 10.9901 25.11 11.3826 25.4239 11.5914Z" fill="#9EFF00"/>
</svg>
